<?xml version="1.0" encoding="utf-8"?>
<!-- Generator: Adobe Illustrator 21.0.2, SVG Export Plug-In . SVG Version: 6.00 Build 0)  -->
<svg version="1.1" xmlns="http://www.w3.org/2000/svg" xmlns:xlink="http://www.w3.org/1999/xlink" x="0px" y="0px"
	 viewBox="0 0 96 120" style="enable-background:new 0 0 96 120;" xml:space="preserve">
<style type="text/css">
	.st0{fill:#7C7C7C;}
</style>
<g id="Layer_2">
</g>
<g id="Layer_1">
	<g>
		<g>
			<polygon class="st0" points="92.7,64.5 73.2,47 22.8,47 3.3,64.5 0.7,61.5 21.2,43 74.8,43 95.3,61.5 			"/>
		</g>
		<g>
			<path class="st0" d="M90,96H6c-3.3,0-6-2.7-6-6V61h32v2c0,5,4,9,9,9h14c5,0,9-4,9-9v-2h32v29C96,93.3,93.3,96,90,96z M4,65v25
				c0,1.1,0.9,2,2,2h84c1.1,0,2-0.9,2-2V65H67.8c-1,6.2-6.4,11-12.8,11H41c-6.5,0-11.9-4.8-12.8-11H4z"/>
		</g>
		<g>
			<rect x="28.5" y="16" transform="matrix(0.8437 -0.5369 0.5369 0.8437 -7.3123 19.8925)" class="st0" width="4" height="13"/>
		</g>
		<g>
			<rect x="60" y="20.5" transform="matrix(0.5368 -0.8437 0.8437 0.5368 11.821 66.5286)" class="st0" width="13" height="4"/>
		</g>
		<g>
			<rect x="46" y="14" class="st0" width="4" height="13"/>
		</g>
	</g>
</g>
</svg>
